G04*
G04 #@! TF.GenerationSoftware,Altium Limited,Altium Designer,25.8.1 (18)*
G04*
G04 Layer_Physical_Order=2*
G04 Layer_Color=16711680*
%FSLAX25Y25*%
%MOIN*%
G70*
G04*
G04 #@! TF.SameCoordinates,DF7FB86F-BB7A-4952-9DC5-A7C3E525FF5A*
G04*
G04*
G04 #@! TF.FilePolarity,Positive*
G04*
G01*
G75*
%ADD28C,0.01200*%
%ADD29C,0.05709*%
%ADD30R,0.05709X0.05709*%
%ADD31C,0.06200*%
%ADD32C,0.05906*%
%ADD33C,0.18661*%
%ADD34C,0.16100*%
%ADD35C,0.11811*%
%ADD36R,0.05906X0.05906*%
%ADD37C,0.04874*%
%ADD38R,0.04874X0.04874*%
%ADD39C,0.15000*%
%ADD40R,0.04874X0.04874*%
%ADD41R,0.06200X0.06200*%
%ADD42C,0.03000*%
%ADD43R,0.10039X0.09843*%
%ADD44C,0.02500*%
G36*
X240030Y344971D02*
X239301Y344550D01*
X238379Y343628D01*
X237727Y342498D01*
X237390Y341239D01*
Y339935D01*
X237727Y338675D01*
X238379Y337546D01*
X239301Y336623D01*
X239900Y336278D01*
X239632Y335278D01*
X225368D01*
X225100Y336278D01*
X225698Y336623D01*
X226621Y337546D01*
X227273Y338675D01*
X227610Y339935D01*
Y341239D01*
X227273Y342498D01*
X226621Y343628D01*
X225698Y344550D01*
X224970Y344971D01*
X225237Y345971D01*
X239762D01*
X240030Y344971D01*
D02*
G37*
G36*
X440471Y8029D02*
X75529D01*
Y345971D01*
X220077D01*
X220345Y344971D01*
X219616Y344550D01*
X218694Y343628D01*
X218042Y342498D01*
X217705Y341239D01*
Y339935D01*
X218042Y338675D01*
X218694Y337546D01*
X219616Y336623D01*
X220215Y336278D01*
X219947Y335278D01*
X132500D01*
X131652Y335166D01*
X130861Y334839D01*
X130182Y334318D01*
X120531Y324667D01*
X119499Y325049D01*
X119252Y325969D01*
X118581Y327132D01*
X117631Y328081D01*
X116469Y328752D01*
X115171Y329100D01*
X113829D01*
X112531Y328752D01*
X111369Y328081D01*
X110419Y327132D01*
X109748Y325969D01*
X109400Y324671D01*
Y323329D01*
X109748Y322031D01*
X110419Y320868D01*
X111369Y319919D01*
X111960Y319577D01*
Y318423D01*
X111369Y318081D01*
X110419Y317131D01*
X109748Y315968D01*
X109400Y314671D01*
Y313329D01*
X109748Y312032D01*
X110419Y310869D01*
X111369Y309919D01*
X111960Y309577D01*
Y308423D01*
X111369Y308081D01*
X110419Y307132D01*
X109748Y305968D01*
X109400Y304671D01*
Y303329D01*
X109748Y302031D01*
X110419Y300869D01*
X111369Y299919D01*
X111960Y299577D01*
Y298423D01*
X111369Y298081D01*
X110419Y297131D01*
X109748Y295969D01*
X109400Y294671D01*
Y293329D01*
X109748Y292032D01*
X110419Y290868D01*
X111369Y289919D01*
X111960Y289577D01*
Y288423D01*
X111369Y288081D01*
X110419Y287132D01*
X109748Y285968D01*
X109400Y284671D01*
Y283329D01*
X109748Y282031D01*
X110419Y280869D01*
X111369Y279919D01*
X111960Y279577D01*
Y278423D01*
X111369Y278081D01*
X110419Y277132D01*
X109748Y275969D01*
X109400Y274671D01*
Y273329D01*
X109748Y272031D01*
X110419Y270868D01*
X111369Y269919D01*
X111960Y269577D01*
Y268423D01*
X111369Y268081D01*
X110419Y267131D01*
X109748Y265968D01*
X109400Y264671D01*
Y263329D01*
X109748Y262032D01*
X110419Y260869D01*
X111369Y259919D01*
X111960Y259577D01*
Y258423D01*
X111369Y258081D01*
X110419Y257132D01*
X109748Y255968D01*
X109400Y254671D01*
Y253329D01*
X109748Y252031D01*
X110419Y250869D01*
X111369Y249919D01*
X111960Y249577D01*
Y248423D01*
X111369Y248081D01*
X110419Y247131D01*
X109748Y245969D01*
X109400Y244671D01*
Y243329D01*
X109748Y242032D01*
X110419Y240868D01*
X111369Y239919D01*
X111960Y239577D01*
Y238423D01*
X111369Y238081D01*
X110419Y237132D01*
X109748Y235968D01*
X109400Y234671D01*
Y233329D01*
X109748Y232031D01*
X110419Y230869D01*
X111369Y229919D01*
X111960Y229577D01*
Y228423D01*
X111369Y228081D01*
X110419Y227132D01*
X109748Y225969D01*
X109400Y224671D01*
Y223329D01*
X109748Y222031D01*
X110419Y220868D01*
X111369Y219919D01*
X111960Y219577D01*
Y218423D01*
X111369Y218081D01*
X110419Y217131D01*
X109748Y215968D01*
X109400Y214671D01*
Y213329D01*
X109748Y212032D01*
X110419Y210869D01*
X111369Y209919D01*
X111960Y209577D01*
Y208423D01*
X111369Y208081D01*
X110419Y207132D01*
X109748Y205968D01*
X109400Y204671D01*
Y203329D01*
X109748Y202031D01*
X110419Y200869D01*
X111369Y199919D01*
X112531Y199248D01*
X113455Y199000D01*
Y197965D01*
X112917Y197821D01*
X111983Y197281D01*
X111219Y196518D01*
X110679Y195582D01*
X110400Y194540D01*
Y194500D01*
X114500D01*
X118600D01*
Y194540D01*
X118321Y195582D01*
X117781Y196518D01*
X117017Y197281D01*
X116083Y197821D01*
X115545Y197965D01*
Y199000D01*
X116469Y199248D01*
X117631Y199919D01*
X118581Y200869D01*
X119252Y202031D01*
X119600Y203329D01*
Y204671D01*
X119252Y205968D01*
X118581Y207132D01*
X117631Y208081D01*
X117040Y208423D01*
Y209577D01*
X117631Y209919D01*
X118581Y210869D01*
X119252Y212032D01*
X119600Y213329D01*
Y214671D01*
X119252Y215968D01*
X118581Y217131D01*
X117631Y218081D01*
X117040Y218423D01*
Y219577D01*
X117631Y219919D01*
X118581Y220868D01*
X119252Y222031D01*
X119600Y223329D01*
Y224671D01*
X119252Y225969D01*
X118581Y227132D01*
X117631Y228081D01*
X117040Y228423D01*
Y229577D01*
X117631Y229919D01*
X118581Y230869D01*
X119252Y232031D01*
X119600Y233329D01*
Y234671D01*
X119252Y235968D01*
X118581Y237132D01*
X117631Y238081D01*
X117040Y238423D01*
Y239577D01*
X117631Y239919D01*
X118581Y240868D01*
X119252Y242032D01*
X119600Y243329D01*
Y244671D01*
X119448Y245239D01*
X130586Y256378D01*
X168897D01*
X169589Y255378D01*
X169400Y254671D01*
Y253329D01*
X169748Y252031D01*
X170419Y250869D01*
X171369Y249919D01*
X171960Y249577D01*
Y248423D01*
X171369Y248081D01*
X170419Y247131D01*
X169748Y245969D01*
X169400Y244671D01*
Y243329D01*
X169748Y242032D01*
X170419Y240868D01*
X171369Y239919D01*
X171960Y239577D01*
Y238423D01*
X171369Y238081D01*
X170419Y237132D01*
X169748Y235968D01*
X169400Y234671D01*
Y233329D01*
X169748Y232031D01*
X170419Y230869D01*
X171369Y229919D01*
X171960Y229577D01*
Y228423D01*
X171369Y228081D01*
X170419Y227132D01*
X169748Y225969D01*
X169400Y224671D01*
Y223329D01*
X169748Y222031D01*
X170419Y220868D01*
X171369Y219919D01*
X172531Y219248D01*
X173455Y219000D01*
Y217965D01*
X172917Y217821D01*
X171983Y217281D01*
X171219Y216517D01*
X170679Y215582D01*
X170400Y214540D01*
Y214500D01*
X174500D01*
X178600D01*
Y214540D01*
X178321Y215582D01*
X177781Y216517D01*
X177017Y217281D01*
X176083Y217821D01*
X175545Y217965D01*
Y219000D01*
X176469Y219248D01*
X177631Y219919D01*
X178252Y220539D01*
X210646Y188146D01*
X210646Y188146D01*
X211189Y187729D01*
X211821Y187467D01*
X212500Y187378D01*
X212500Y187378D01*
X244292D01*
X248253Y183417D01*
X247686Y182569D01*
X247514Y182640D01*
X246180Y182905D01*
X244820D01*
X243486Y182640D01*
X242229Y182120D01*
X241098Y181364D01*
X240136Y180402D01*
X239380Y179271D01*
X238860Y178014D01*
X238595Y176680D01*
Y175320D01*
X238860Y173986D01*
X239380Y172729D01*
X240136Y171598D01*
X241098Y170636D01*
X242229Y169880D01*
X243486Y169360D01*
X244820Y169095D01*
X246180D01*
X247514Y169360D01*
X248771Y169880D01*
X249902Y170636D01*
X250864Y171598D01*
X251457Y172485D01*
X252457Y172202D01*
Y169079D01*
X256854D01*
Y97921D01*
X252457D01*
Y94798D01*
X251457Y94515D01*
X250864Y95402D01*
X249902Y96364D01*
X248771Y97120D01*
X247514Y97640D01*
X246180Y97905D01*
X244820D01*
X243486Y97640D01*
X242229Y97120D01*
X241098Y96364D01*
X240136Y95402D01*
X239380Y94271D01*
X238860Y93014D01*
X238595Y91680D01*
Y90320D01*
X238860Y88986D01*
X239380Y87729D01*
X240136Y86598D01*
X241098Y85636D01*
X242229Y84880D01*
X243486Y84360D01*
X244820Y84095D01*
X246180D01*
X247514Y84360D01*
X248771Y84880D01*
X249902Y85636D01*
X250864Y86598D01*
X251457Y87485D01*
X252457Y87202D01*
Y84079D01*
X266496D01*
Y97921D01*
X262099D01*
Y169079D01*
X266496D01*
Y182921D01*
X262099D01*
Y253579D01*
X266496D01*
Y257878D01*
X268500D01*
X268500Y257878D01*
X269179Y257967D01*
X269811Y258229D01*
X270354Y258646D01*
X272209Y260500D01*
X272461D01*
X273351Y260738D01*
X274149Y261199D01*
X274801Y261851D01*
X275261Y262649D01*
X275500Y263539D01*
Y264461D01*
X275261Y265351D01*
X274957Y265878D01*
X275278Y266656D01*
X275486Y266878D01*
X313815D01*
X314119Y265878D01*
X314098Y265864D01*
X313136Y264902D01*
X312380Y263771D01*
X311860Y262514D01*
X311595Y261180D01*
Y259820D01*
X311860Y258486D01*
X312380Y257229D01*
X313136Y256098D01*
X314098Y255136D01*
X315229Y254380D01*
X316486Y253860D01*
X317820Y253594D01*
X319180D01*
X320514Y253860D01*
X321771Y254380D01*
X322902Y255136D01*
X323864Y256098D01*
X324457Y256985D01*
X325457Y256702D01*
Y253579D01*
X329854D01*
Y182921D01*
X324957D01*
Y179798D01*
X323957Y179515D01*
X323364Y180402D01*
X322402Y181364D01*
X321271Y182120D01*
X320014Y182640D01*
X318680Y182905D01*
X317320D01*
X315986Y182640D01*
X314729Y182120D01*
X313598Y181364D01*
X312636Y180402D01*
X311880Y179271D01*
X311360Y178014D01*
X311094Y176680D01*
Y175320D01*
X311360Y173986D01*
X311880Y172729D01*
X312636Y171598D01*
X313598Y170636D01*
X314729Y169880D01*
X315986Y169360D01*
X317320Y169095D01*
X318680D01*
X320014Y169360D01*
X321271Y169880D01*
X322402Y170636D01*
X323364Y171598D01*
X323957Y172485D01*
X324957Y172202D01*
Y169079D01*
X329354D01*
Y97921D01*
X324957D01*
Y94798D01*
X323957Y94515D01*
X323364Y95402D01*
X322402Y96364D01*
X321271Y97120D01*
X320014Y97640D01*
X318680Y97905D01*
X317320D01*
X315986Y97640D01*
X314729Y97120D01*
X313598Y96364D01*
X312636Y95402D01*
X311880Y94271D01*
X311360Y93014D01*
X311094Y91680D01*
Y90320D01*
X311360Y88986D01*
X311880Y87729D01*
X312636Y86598D01*
X313598Y85636D01*
X314729Y84880D01*
X315986Y84360D01*
X317320Y84095D01*
X318680D01*
X320014Y84360D01*
X321271Y84880D01*
X322402Y85636D01*
X323364Y86598D01*
X323957Y87485D01*
X324957Y87202D01*
Y84079D01*
X338996D01*
Y97921D01*
X334599D01*
Y169079D01*
X338996D01*
Y182921D01*
X335099D01*
Y253579D01*
X339496D01*
Y267421D01*
X329165D01*
X327133Y269454D01*
X327516Y270378D01*
X392292D01*
X394753Y267917D01*
X394186Y267069D01*
X394014Y267140D01*
X392680Y267406D01*
X391320D01*
X389986Y267140D01*
X388729Y266620D01*
X387598Y265864D01*
X386636Y264902D01*
X385880Y263771D01*
X385360Y262514D01*
X385094Y261180D01*
Y259820D01*
X385360Y258486D01*
X385880Y257229D01*
X386636Y256098D01*
X387598Y255136D01*
X388729Y254380D01*
X389986Y253860D01*
X391320Y253594D01*
X392680D01*
X394014Y253860D01*
X395271Y254380D01*
X396402Y255136D01*
X397364Y256098D01*
X397957Y256985D01*
X398957Y256702D01*
Y253579D01*
X403256D01*
Y182921D01*
X398957D01*
Y179798D01*
X397957Y179515D01*
X397364Y180402D01*
X396402Y181364D01*
X395271Y182120D01*
X394014Y182640D01*
X392680Y182905D01*
X391320D01*
X389986Y182640D01*
X388729Y182120D01*
X387598Y181364D01*
X386636Y180402D01*
X385880Y179271D01*
X385360Y178014D01*
X385094Y176680D01*
Y175320D01*
X385360Y173986D01*
X385880Y172729D01*
X386636Y171598D01*
X387598Y170636D01*
X388729Y169880D01*
X389986Y169360D01*
X391320Y169095D01*
X392680D01*
X394014Y169360D01*
X395271Y169880D01*
X396402Y170636D01*
X397364Y171598D01*
X397957Y172485D01*
X398957Y172202D01*
Y169079D01*
X403354D01*
Y97921D01*
X398957D01*
Y94798D01*
X397957Y94515D01*
X397364Y95402D01*
X396402Y96364D01*
X395271Y97120D01*
X394014Y97640D01*
X392680Y97905D01*
X391320D01*
X389986Y97640D01*
X388729Y97120D01*
X387598Y96364D01*
X386636Y95402D01*
X385880Y94271D01*
X385360Y93014D01*
X385094Y91680D01*
Y90320D01*
X385360Y88986D01*
X385880Y87729D01*
X386636Y86598D01*
X387598Y85636D01*
X388729Y84880D01*
X389986Y84360D01*
X391320Y84095D01*
X392680D01*
X394014Y84360D01*
X395271Y84880D01*
X396402Y85636D01*
X397364Y86598D01*
X397957Y87485D01*
X398957Y87202D01*
Y84079D01*
X412996D01*
Y97921D01*
X408599D01*
Y169079D01*
X412996D01*
Y182921D01*
X408500D01*
Y253579D01*
X412996D01*
Y267421D01*
X402665D01*
X395232Y274854D01*
X394689Y275271D01*
X394057Y275533D01*
X393378Y275622D01*
X393378Y275622D01*
X261138D01*
X260755Y276546D01*
X265854Y281646D01*
X265854Y281646D01*
X266271Y282189D01*
X266533Y282821D01*
X266622Y283500D01*
X266622Y283500D01*
Y298914D01*
X277422Y309713D01*
X277519Y309616D01*
X278529Y309033D01*
X278609Y308500D01*
X278529Y307967D01*
X277519Y307384D01*
X276616Y306481D01*
X275976Y305374D01*
X275646Y304139D01*
Y302861D01*
X275976Y301626D01*
X276616Y300519D01*
X277519Y299616D01*
X278626Y298976D01*
X279861Y298646D01*
X281139D01*
X282374Y298976D01*
X283481Y299616D01*
X284087Y300222D01*
X288000D01*
X288424Y300278D01*
X288848Y300334D01*
X289639Y300661D01*
X290318Y301182D01*
X295318Y306182D01*
X295839Y306861D01*
X296166Y307652D01*
X296278Y308500D01*
Y327361D01*
X296166Y328210D01*
X295839Y329000D01*
X295318Y329679D01*
X290679Y334318D01*
X290000Y334839D01*
X289210Y335166D01*
X288785Y335222D01*
X288361Y335278D01*
X245053D01*
X244785Y336278D01*
X245384Y336623D01*
X246306Y337546D01*
X246958Y338675D01*
X247295Y339935D01*
Y341239D01*
X246958Y342498D01*
X246306Y343628D01*
X245384Y344550D01*
X244655Y344971D01*
X244923Y345971D01*
X440471D01*
Y8029D01*
D02*
G37*
G36*
X275646Y322861D02*
X275976Y321626D01*
X276616Y320519D01*
X277519Y319616D01*
X278529Y319033D01*
X278609Y318500D01*
X278529Y317967D01*
X277519Y317384D01*
X276616Y316481D01*
X275976Y315374D01*
X275965Y315332D01*
X275598Y315180D01*
X275055Y314763D01*
X275055Y314763D01*
X262146Y301854D01*
X261729Y301311D01*
X261467Y300679D01*
X261378Y300000D01*
X261378Y300000D01*
Y284586D01*
X256414Y279622D01*
X246733D01*
X246400Y280622D01*
X246958Y281588D01*
X247295Y282848D01*
Y284152D01*
X246958Y285412D01*
X246306Y286541D01*
X245384Y287463D01*
X244254Y288115D01*
X242995Y288453D01*
X241690D01*
X240431Y288115D01*
X239301Y287463D01*
X238379Y286541D01*
X237727Y285412D01*
X237390Y284152D01*
X236407Y284193D01*
X236183Y285026D01*
X235663Y285927D01*
X234927Y286663D01*
X234026Y287183D01*
X233020Y287453D01*
X233000D01*
Y283500D01*
X232000D01*
Y287453D01*
X231980D01*
X230974Y287183D01*
X230073Y286663D01*
X229337Y285927D01*
X228817Y285026D01*
X228610Y284256D01*
X227610Y284387D01*
Y288453D01*
X217705D01*
Y279622D01*
X202245D01*
X201890Y280209D01*
X201816Y280607D01*
X244586Y323378D01*
X250320D01*
X250518Y322378D01*
X250047Y322182D01*
X248356Y321052D01*
X246917Y319613D01*
X245786Y317921D01*
X245007Y316041D01*
X244610Y314045D01*
Y313528D01*
X265272D01*
Y314045D01*
X264875Y316041D01*
X264096Y317921D01*
X262965Y319613D01*
X261526Y321052D01*
X259834Y322182D01*
X259364Y322378D01*
X259562Y323378D01*
X275646D01*
Y322861D01*
D02*
G37*
G36*
X241416Y328244D02*
X241513Y327722D01*
X185414Y271622D01*
X180103D01*
X179411Y272622D01*
X179600Y273329D01*
Y274671D01*
X179519Y274974D01*
X191272Y286726D01*
X196437D01*
Y295600D01*
X187563D01*
Y290435D01*
X180600Y283472D01*
X179600Y283886D01*
Y284671D01*
X179252Y285968D01*
X178581Y287132D01*
X177631Y288081D01*
X177040Y288423D01*
Y289577D01*
X177631Y289919D01*
X178581Y290868D01*
X179252Y292032D01*
X179600Y293329D01*
Y294671D01*
X179252Y295969D01*
X178581Y297131D01*
X177631Y298081D01*
X177040Y298423D01*
Y299577D01*
X177631Y299919D01*
X178581Y300869D01*
X179252Y302031D01*
X179600Y303329D01*
Y304671D01*
X179252Y305968D01*
X178581Y307132D01*
X177631Y308081D01*
X177040Y308423D01*
Y309577D01*
X177631Y309919D01*
X178581Y310869D01*
X179252Y312032D01*
X179600Y313329D01*
Y314671D01*
X179252Y315968D01*
X178581Y317131D01*
X177631Y318081D01*
X177040Y318423D01*
Y319577D01*
X177631Y319919D01*
X178581Y320868D01*
X179252Y322031D01*
X179600Y323329D01*
Y324671D01*
X179252Y325969D01*
X178581Y327132D01*
X177990Y327722D01*
X178405Y328722D01*
X241134D01*
X241416Y328244D01*
D02*
G37*
G36*
X171010Y327722D02*
X170419Y327132D01*
X169748Y325969D01*
X169400Y324671D01*
Y323329D01*
X169748Y322031D01*
X170419Y320868D01*
X171369Y319919D01*
X171960Y319577D01*
Y318423D01*
X171369Y318081D01*
X170419Y317131D01*
X169748Y315968D01*
X169400Y314671D01*
Y313329D01*
X169748Y312032D01*
X170419Y310869D01*
X171369Y309919D01*
X171960Y309577D01*
Y308423D01*
X171369Y308081D01*
X170419Y307132D01*
X169748Y305968D01*
X169400Y304671D01*
Y303329D01*
X169748Y302031D01*
X170419Y300869D01*
X171369Y299919D01*
X171960Y299577D01*
Y298423D01*
X171369Y298081D01*
X170419Y297131D01*
X169748Y295969D01*
X169400Y294671D01*
Y293329D01*
X169748Y292032D01*
X170419Y290868D01*
X171369Y289919D01*
X171960Y289577D01*
Y288423D01*
X171369Y288081D01*
X170419Y287132D01*
X169748Y285968D01*
X169400Y284671D01*
Y283329D01*
X169748Y282031D01*
X170419Y280869D01*
X171369Y279919D01*
X171960Y279577D01*
Y278423D01*
X171369Y278081D01*
X170419Y277132D01*
X169748Y275969D01*
X169400Y274671D01*
Y273329D01*
X169589Y272622D01*
X168897Y271622D01*
X129500D01*
X128821Y271533D01*
X128189Y271271D01*
X127646Y270854D01*
X127646Y270854D01*
X120600Y263809D01*
X119600Y264223D01*
Y264671D01*
X119252Y265968D01*
X118581Y267131D01*
X117631Y268081D01*
X117040Y268423D01*
Y269577D01*
X117631Y269919D01*
X118581Y270868D01*
X119252Y272031D01*
X119600Y273329D01*
Y274671D01*
X119252Y275969D01*
X118581Y277132D01*
X117631Y278081D01*
X117040Y278423D01*
Y279577D01*
X117631Y279919D01*
X118581Y280869D01*
X119252Y282031D01*
X119600Y283329D01*
Y284671D01*
X119252Y285968D01*
X118581Y287132D01*
X117631Y288081D01*
X117040Y288423D01*
Y289577D01*
X117631Y289919D01*
X118581Y290868D01*
X119252Y292032D01*
X119600Y293329D01*
Y294671D01*
X119252Y295969D01*
X118581Y297131D01*
X117631Y298081D01*
X117040Y298423D01*
Y299577D01*
X117631Y299919D01*
X118581Y300869D01*
X119252Y302031D01*
X119600Y303329D01*
Y304671D01*
X119252Y305968D01*
X118581Y307132D01*
X117631Y308081D01*
X117040Y308423D01*
Y309577D01*
X117631Y309919D01*
X118581Y310869D01*
X119252Y312032D01*
X119600Y313329D01*
Y314464D01*
X133858Y328722D01*
X170595D01*
X171010Y327722D01*
D02*
G37*
G36*
X241119Y265878D02*
X241098Y265864D01*
X240136Y264902D01*
X239380Y263771D01*
X238860Y262514D01*
X238595Y261180D01*
Y259820D01*
X238860Y258486D01*
X239380Y257229D01*
X240136Y256098D01*
X241098Y255136D01*
X242229Y254380D01*
X243486Y253860D01*
X244820Y253594D01*
X246180D01*
X247514Y253860D01*
X248771Y254380D01*
X249902Y255136D01*
X250864Y256098D01*
X251457Y256985D01*
X252457Y256702D01*
Y253579D01*
X256854D01*
Y183647D01*
X255854Y183233D01*
X247232Y191854D01*
X246689Y192271D01*
X246057Y192533D01*
X245378Y192622D01*
X245378Y192622D01*
X213586D01*
X180551Y225657D01*
X180008Y226074D01*
X179376Y226336D01*
X179013Y226384D01*
X178581Y227132D01*
X177631Y228081D01*
X177040Y228423D01*
Y229577D01*
X177631Y229919D01*
X178581Y230869D01*
X179252Y232031D01*
X179600Y233329D01*
Y234671D01*
X179448Y235239D01*
X198580Y254371D01*
X199504Y253989D01*
Y243579D01*
X203901D01*
Y238935D01*
X202901Y238736D01*
X202619Y239416D01*
X201916Y240119D01*
X201000Y240499D01*
Y238000D01*
Y235501D01*
X201916Y235881D01*
X202619Y236584D01*
X202901Y237264D01*
X203901Y237065D01*
Y212640D01*
X203901Y212640D01*
X203991Y211961D01*
X204253Y211329D01*
X204669Y210785D01*
X216257Y199198D01*
X216226Y199084D01*
Y197916D01*
X216529Y196787D01*
X217113Y195776D01*
X217939Y194949D01*
X218951Y194365D01*
X220079Y194063D01*
X221248D01*
X222376Y194365D01*
X223388Y194949D01*
X224214Y195776D01*
X224798Y196787D01*
X225100Y197916D01*
Y199084D01*
X224798Y200213D01*
X224214Y201224D01*
X223388Y202050D01*
X222376Y202635D01*
X221248Y202937D01*
X220079D01*
X219966Y202906D01*
X209146Y213726D01*
Y243579D01*
X213543D01*
Y246702D01*
X214543Y246985D01*
X215136Y246098D01*
X216098Y245136D01*
X217229Y244380D01*
X218486Y243860D01*
X219820Y243595D01*
X221180D01*
X222514Y243860D01*
X223771Y244380D01*
X224902Y245136D01*
X225864Y246098D01*
X226620Y247229D01*
X227140Y248486D01*
X227406Y249820D01*
Y251180D01*
X227140Y252514D01*
X226620Y253771D01*
X225864Y254902D01*
X224902Y255864D01*
X223771Y256620D01*
X222514Y257140D01*
X221180Y257405D01*
X219820D01*
X218486Y257140D01*
X217229Y256620D01*
X216098Y255864D01*
X215136Y254902D01*
X214543Y254015D01*
X213543Y254298D01*
Y257421D01*
X202937D01*
X202554Y258345D01*
X211086Y266878D01*
X240815D01*
X241119Y265878D01*
D02*
G37*
%LPC*%
G36*
X427936Y341500D02*
X426064D01*
X424229Y341135D01*
X422500Y340419D01*
X420944Y339379D01*
X419621Y338056D01*
X418581Y336500D01*
X417865Y334771D01*
X417500Y332936D01*
Y331064D01*
X417865Y329229D01*
X418581Y327500D01*
X419621Y325944D01*
X420944Y324621D01*
X422500Y323581D01*
X424229Y322865D01*
X426064Y322500D01*
X427936D01*
X429771Y322865D01*
X431500Y323581D01*
X433056Y324621D01*
X434379Y325944D01*
X435419Y327500D01*
X436135Y329229D01*
X436500Y331064D01*
Y332936D01*
X436135Y334771D01*
X435419Y336500D01*
X434379Y338056D01*
X433056Y339379D01*
X431500Y340419D01*
X429771Y341135D01*
X427936Y341500D01*
D02*
G37*
G36*
X90436D02*
X88564D01*
X86729Y341135D01*
X85000Y340419D01*
X83444Y339379D01*
X82121Y338056D01*
X81081Y336500D01*
X80365Y334771D01*
X80000Y332936D01*
Y331064D01*
X80365Y329229D01*
X81081Y327500D01*
X82121Y325944D01*
X83444Y324621D01*
X85000Y323581D01*
X86729Y322865D01*
X88564Y322500D01*
X90436D01*
X92271Y322865D01*
X94000Y323581D01*
X95556Y324621D01*
X96879Y325944D01*
X97919Y327500D01*
X98635Y329229D01*
X99000Y331064D01*
Y332936D01*
X98635Y334771D01*
X97919Y336500D01*
X96879Y338056D01*
X95556Y339379D01*
X94000Y340419D01*
X92271Y341135D01*
X90436Y341500D01*
D02*
G37*
G36*
X284354Y297354D02*
X281000D01*
Y294000D01*
X284354D01*
Y297354D01*
D02*
G37*
G36*
X280000D02*
X276646D01*
Y294000D01*
X280000D01*
Y297354D01*
D02*
G37*
G36*
X284354Y293000D02*
X281000D01*
Y289646D01*
X284354D01*
Y293000D01*
D02*
G37*
G36*
X280000D02*
X276646D01*
Y289646D01*
X280000D01*
Y293000D01*
D02*
G37*
G36*
X360043Y257421D02*
X346004D01*
Y243579D01*
X350401D01*
Y212640D01*
X350401Y212640D01*
X350490Y211961D01*
X350752Y211329D01*
X351169Y210785D01*
X362757Y199198D01*
X362726Y199084D01*
Y197916D01*
X363029Y196787D01*
X363613Y195776D01*
X364439Y194949D01*
X365451Y194365D01*
X366579Y194063D01*
X367747D01*
X368876Y194365D01*
X369888Y194949D01*
X370714Y195776D01*
X371298Y196787D01*
X371600Y197916D01*
Y199084D01*
X371298Y200213D01*
X370714Y201224D01*
X369888Y202050D01*
X368876Y202635D01*
X367747Y202937D01*
X366579D01*
X366465Y202906D01*
X355646Y213726D01*
Y243579D01*
X360043D01*
Y246702D01*
X361043Y246985D01*
X361636Y246098D01*
X362598Y245136D01*
X363729Y244380D01*
X364986Y243860D01*
X366320Y243595D01*
X367680D01*
X369014Y243860D01*
X370271Y244380D01*
X371402Y245136D01*
X372364Y246098D01*
X373120Y247229D01*
X373640Y248486D01*
X373905Y249820D01*
Y251180D01*
X373640Y252514D01*
X373120Y253771D01*
X372364Y254902D01*
X371402Y255864D01*
X370271Y256620D01*
X369014Y257140D01*
X367680Y257405D01*
X366320D01*
X364986Y257140D01*
X363729Y256620D01*
X362598Y255864D01*
X361636Y254902D01*
X361043Y254015D01*
X360043Y254298D01*
Y257421D01*
D02*
G37*
G36*
X286543D02*
X272504D01*
Y243579D01*
X276901D01*
Y212640D01*
X276901Y212640D01*
X276991Y211961D01*
X277253Y211329D01*
X277669Y210785D01*
X289257Y199198D01*
X289226Y199084D01*
Y197916D01*
X289529Y196787D01*
X290113Y195776D01*
X290939Y194949D01*
X291951Y194365D01*
X293079Y194063D01*
X294248D01*
X295376Y194365D01*
X296388Y194949D01*
X297214Y195776D01*
X297798Y196787D01*
X298100Y197916D01*
Y199084D01*
X297798Y200213D01*
X297214Y201224D01*
X296388Y202050D01*
X295376Y202635D01*
X294248Y202937D01*
X293079D01*
X292966Y202906D01*
X282146Y213726D01*
Y243579D01*
X286543D01*
Y246702D01*
X287543Y246985D01*
X288136Y246098D01*
X289098Y245136D01*
X290229Y244380D01*
X291486Y243860D01*
X292820Y243595D01*
X294180D01*
X295514Y243860D01*
X296771Y244380D01*
X297902Y245136D01*
X298864Y246098D01*
X299620Y247229D01*
X300140Y248486D01*
X300406Y249820D01*
Y251180D01*
X300140Y252514D01*
X299620Y253771D01*
X298864Y254902D01*
X297902Y255864D01*
X296771Y256620D01*
X295514Y257140D01*
X294180Y257405D01*
X292820D01*
X291486Y257140D01*
X290229Y256620D01*
X289098Y255864D01*
X288136Y254902D01*
X287543Y254015D01*
X286543Y254298D01*
Y257421D01*
D02*
G37*
G36*
X382891Y249550D02*
X381109D01*
X379360Y249202D01*
X377713Y248520D01*
X376231Y247530D01*
X374970Y246269D01*
X373980Y244787D01*
X373298Y243140D01*
X372950Y241391D01*
Y239609D01*
X373298Y237860D01*
X373980Y236213D01*
X374970Y234731D01*
X376231Y233470D01*
X377713Y232480D01*
X379360Y231798D01*
X381109Y231450D01*
X382891D01*
X384640Y231798D01*
X386287Y232480D01*
X387769Y233470D01*
X389030Y234731D01*
X390020Y236213D01*
X390702Y237860D01*
X391050Y239609D01*
Y241391D01*
X390702Y243140D01*
X390020Y244787D01*
X389030Y246269D01*
X387769Y247530D01*
X386287Y248520D01*
X384640Y249202D01*
X382891Y249550D01*
D02*
G37*
G36*
X309391D02*
X307609D01*
X305860Y249202D01*
X304213Y248520D01*
X302731Y247530D01*
X301470Y246269D01*
X300480Y244787D01*
X299798Y243140D01*
X299450Y241391D01*
Y239609D01*
X299798Y237860D01*
X300480Y236213D01*
X301470Y234731D01*
X302731Y233470D01*
X304213Y232480D01*
X305860Y231798D01*
X307609Y231450D01*
X309391D01*
X311140Y231798D01*
X312787Y232480D01*
X314269Y233470D01*
X315530Y234731D01*
X316520Y236213D01*
X317202Y237860D01*
X317550Y239609D01*
Y241391D01*
X317202Y243140D01*
X316520Y244787D01*
X315530Y246269D01*
X314269Y247530D01*
X312787Y248520D01*
X311140Y249202D01*
X309391Y249550D01*
D02*
G37*
G36*
X401274Y202937D02*
X392400D01*
Y194063D01*
X401274D01*
Y202937D01*
D02*
G37*
G36*
X327774D02*
X318900D01*
Y194063D01*
X327774D01*
Y202937D01*
D02*
G37*
G36*
X360043Y172921D02*
X346004D01*
Y159079D01*
X350401D01*
Y128140D01*
X350401Y128140D01*
X350490Y127461D01*
X350752Y126829D01*
X351169Y126285D01*
X362757Y114698D01*
X362726Y114584D01*
Y113416D01*
X363029Y112287D01*
X363613Y111276D01*
X364439Y110450D01*
X365451Y109865D01*
X366579Y109563D01*
X367747D01*
X368876Y109865D01*
X369888Y110450D01*
X370714Y111276D01*
X371298Y112287D01*
X371600Y113416D01*
Y114584D01*
X371298Y115713D01*
X370714Y116724D01*
X369888Y117551D01*
X368876Y118135D01*
X367747Y118437D01*
X366579D01*
X366465Y118406D01*
X355646Y129226D01*
Y159079D01*
X360043D01*
Y162202D01*
X361043Y162485D01*
X361636Y161598D01*
X362598Y160636D01*
X363729Y159880D01*
X364986Y159360D01*
X366320Y159095D01*
X367680D01*
X369014Y159360D01*
X370271Y159880D01*
X371402Y160636D01*
X372364Y161598D01*
X373120Y162729D01*
X373640Y163986D01*
X373905Y165320D01*
Y166680D01*
X373640Y168014D01*
X373120Y169271D01*
X372364Y170402D01*
X371402Y171364D01*
X370271Y172120D01*
X369014Y172640D01*
X367680Y172906D01*
X366320D01*
X364986Y172640D01*
X363729Y172120D01*
X362598Y171364D01*
X361636Y170402D01*
X361043Y169515D01*
X360043Y169798D01*
Y172921D01*
D02*
G37*
G36*
X286043D02*
X272004D01*
Y159079D01*
X276401D01*
Y128140D01*
X276401Y128140D01*
X276490Y127461D01*
X276752Y126829D01*
X277169Y126285D01*
X289726Y113728D01*
Y113416D01*
X290029Y112287D01*
X290613Y111276D01*
X291439Y110450D01*
X292451Y109865D01*
X293579Y109563D01*
X294747D01*
X295876Y109865D01*
X296888Y110450D01*
X297714Y111276D01*
X298298Y112287D01*
X298600Y113416D01*
Y114584D01*
X298298Y115713D01*
X297714Y116724D01*
X296888Y117551D01*
X295876Y118135D01*
X294747Y118437D01*
X293579D01*
X292677Y118195D01*
X281646Y129226D01*
Y159079D01*
X286043D01*
Y162202D01*
X287043Y162485D01*
X287636Y161598D01*
X288598Y160636D01*
X289729Y159880D01*
X290986Y159360D01*
X292320Y159095D01*
X293680D01*
X295014Y159360D01*
X296271Y159880D01*
X297402Y160636D01*
X298364Y161598D01*
X299120Y162729D01*
X299640Y163986D01*
X299905Y165320D01*
Y166680D01*
X299640Y168014D01*
X299120Y169271D01*
X298364Y170402D01*
X297402Y171364D01*
X296271Y172120D01*
X295014Y172640D01*
X293680Y172906D01*
X292320D01*
X290986Y172640D01*
X289729Y172120D01*
X288598Y171364D01*
X287636Y170402D01*
X287043Y169515D01*
X286043Y169798D01*
Y172921D01*
D02*
G37*
G36*
X213543D02*
X199504D01*
Y159079D01*
X203901D01*
Y128140D01*
X203901Y128140D01*
X203991Y127461D01*
X204253Y126829D01*
X204669Y126285D01*
X216726Y114228D01*
Y113416D01*
X217029Y112287D01*
X217613Y111276D01*
X218439Y110450D01*
X219451Y109865D01*
X220579Y109563D01*
X221747D01*
X222876Y109865D01*
X223888Y110450D01*
X224714Y111276D01*
X225298Y112287D01*
X225600Y113416D01*
Y114584D01*
X225298Y115713D01*
X224714Y116724D01*
X223888Y117551D01*
X222876Y118135D01*
X221747Y118437D01*
X220579D01*
X220071Y118301D01*
X209146Y129226D01*
Y159079D01*
X213543D01*
Y162202D01*
X214543Y162485D01*
X215136Y161598D01*
X216098Y160636D01*
X217229Y159880D01*
X218486Y159360D01*
X219820Y159095D01*
X221180D01*
X222514Y159360D01*
X223771Y159880D01*
X224902Y160636D01*
X225864Y161598D01*
X226620Y162729D01*
X227140Y163986D01*
X227406Y165320D01*
Y166680D01*
X227140Y168014D01*
X226620Y169271D01*
X225864Y170402D01*
X224902Y171364D01*
X223771Y172120D01*
X222514Y172640D01*
X221180Y172906D01*
X219820D01*
X218486Y172640D01*
X217229Y172120D01*
X216098Y171364D01*
X215136Y170402D01*
X214543Y169515D01*
X213543Y169798D01*
Y172921D01*
D02*
G37*
G36*
X178600Y213500D02*
X174500D01*
X170400D01*
Y213460D01*
X170679Y212418D01*
X171219Y211483D01*
X171983Y210719D01*
X172917Y210179D01*
X173455Y210035D01*
Y209000D01*
X172531Y208752D01*
X171369Y208081D01*
X170419Y207132D01*
X169748Y205968D01*
X169400Y204671D01*
Y203329D01*
X169748Y202031D01*
X170419Y200869D01*
X171369Y199919D01*
X171960Y199577D01*
Y198423D01*
X171369Y198081D01*
X170419Y197132D01*
X169748Y195968D01*
X169400Y194671D01*
Y193329D01*
X169748Y192032D01*
X170419Y190868D01*
X171369Y189919D01*
X171960Y189577D01*
Y188423D01*
X171369Y188081D01*
X170419Y187132D01*
X169748Y185968D01*
X169400Y184671D01*
Y183329D01*
X169748Y182032D01*
X170419Y180868D01*
X171369Y179919D01*
X171960Y179577D01*
Y178423D01*
X171369Y178081D01*
X170419Y177131D01*
X169748Y175969D01*
X169400Y174671D01*
Y173329D01*
X169748Y172031D01*
X170419Y170869D01*
X171187Y170100D01*
X170995Y169349D01*
X170832Y169100D01*
X169400D01*
Y158900D01*
X179600D01*
Y169100D01*
X178168D01*
X178005Y169349D01*
X177813Y170100D01*
X178581Y170869D01*
X179252Y172031D01*
X179600Y173329D01*
Y174671D01*
X179252Y175969D01*
X178581Y177131D01*
X177631Y178081D01*
X177040Y178423D01*
Y179577D01*
X177631Y179919D01*
X178581Y180868D01*
X179252Y182032D01*
X179600Y183329D01*
Y184671D01*
X179252Y185968D01*
X178581Y187132D01*
X177631Y188081D01*
X177040Y188423D01*
Y189577D01*
X177631Y189919D01*
X178581Y190868D01*
X179252Y192032D01*
X179600Y193329D01*
Y194671D01*
X179252Y195968D01*
X178581Y197132D01*
X177631Y198081D01*
X177040Y198423D01*
Y199577D01*
X177631Y199919D01*
X178581Y200869D01*
X179252Y202031D01*
X179600Y203329D01*
Y204671D01*
X179252Y205968D01*
X178581Y207132D01*
X177631Y208081D01*
X176469Y208752D01*
X175545Y209000D01*
Y210035D01*
X176083Y210179D01*
X177017Y210719D01*
X177781Y211483D01*
X178321Y212418D01*
X178600Y213460D01*
Y213500D01*
D02*
G37*
G36*
X118600Y193500D02*
X114500D01*
X110400D01*
Y193460D01*
X110679Y192418D01*
X111219Y191482D01*
X111983Y190719D01*
X112917Y190179D01*
X113455Y190035D01*
Y189000D01*
X112531Y188752D01*
X111369Y188081D01*
X110419Y187132D01*
X109748Y185968D01*
X109400Y184671D01*
Y183329D01*
X109748Y182032D01*
X110419Y180868D01*
X111369Y179919D01*
X111960Y179577D01*
Y178423D01*
X111369Y178081D01*
X110419Y177131D01*
X109748Y175969D01*
X109400Y174671D01*
Y173329D01*
X109748Y172031D01*
X110419Y170869D01*
X111369Y169919D01*
X111960Y169577D01*
Y168423D01*
X111369Y168081D01*
X110419Y167131D01*
X109748Y165969D01*
X109400Y164671D01*
Y163329D01*
X109748Y162031D01*
X110419Y160869D01*
X111369Y159919D01*
X112531Y159248D01*
X113829Y158900D01*
X115171D01*
X116469Y159248D01*
X117631Y159919D01*
X118581Y160869D01*
X119252Y162031D01*
X119600Y163329D01*
Y164671D01*
X119252Y165969D01*
X118581Y167131D01*
X117631Y168081D01*
X117040Y168423D01*
Y169577D01*
X117631Y169919D01*
X118581Y170869D01*
X119252Y172031D01*
X119600Y173329D01*
Y174671D01*
X119252Y175969D01*
X118581Y177131D01*
X117631Y178081D01*
X117040Y178423D01*
Y179577D01*
X117631Y179919D01*
X118581Y180868D01*
X119252Y182032D01*
X119600Y183329D01*
Y184671D01*
X119252Y185968D01*
X118581Y187132D01*
X117631Y188081D01*
X116469Y188752D01*
X115545Y189000D01*
Y190035D01*
X116083Y190179D01*
X117017Y190719D01*
X117781Y191482D01*
X118321Y192418D01*
X118600Y193460D01*
Y193500D01*
D02*
G37*
G36*
X382891Y165050D02*
X381109D01*
X379360Y164702D01*
X377713Y164020D01*
X376231Y163030D01*
X374970Y161769D01*
X373980Y160287D01*
X373298Y158640D01*
X372950Y156891D01*
Y155109D01*
X373298Y153360D01*
X373980Y151713D01*
X374970Y150231D01*
X376231Y148970D01*
X377713Y147980D01*
X379360Y147298D01*
X381109Y146950D01*
X382891D01*
X384640Y147298D01*
X386287Y147980D01*
X387769Y148970D01*
X389030Y150231D01*
X390020Y151713D01*
X390702Y153360D01*
X391050Y155109D01*
Y156891D01*
X390702Y158640D01*
X390020Y160287D01*
X389030Y161769D01*
X387769Y163030D01*
X386287Y164020D01*
X384640Y164702D01*
X382891Y165050D01*
D02*
G37*
G36*
X308891D02*
X307109D01*
X305360Y164702D01*
X303713Y164020D01*
X302231Y163030D01*
X300970Y161769D01*
X299980Y160287D01*
X299298Y158640D01*
X298950Y156891D01*
Y155109D01*
X299298Y153360D01*
X299980Y151713D01*
X300970Y150231D01*
X302231Y148970D01*
X303713Y147980D01*
X305360Y147298D01*
X307109Y146950D01*
X308891D01*
X310640Y147298D01*
X312287Y147980D01*
X313769Y148970D01*
X315030Y150231D01*
X316020Y151713D01*
X316702Y153360D01*
X317050Y155109D01*
Y156891D01*
X316702Y158640D01*
X316020Y160287D01*
X315030Y161769D01*
X313769Y163030D01*
X312287Y164020D01*
X310640Y164702D01*
X308891Y165050D01*
D02*
G37*
G36*
X236391D02*
X234609D01*
X232860Y164702D01*
X231213Y164020D01*
X229731Y163030D01*
X228470Y161769D01*
X227480Y160287D01*
X226798Y158640D01*
X226450Y156891D01*
Y155109D01*
X226798Y153360D01*
X227480Y151713D01*
X228470Y150231D01*
X229731Y148970D01*
X231213Y147980D01*
X232860Y147298D01*
X234609Y146950D01*
X236391D01*
X238140Y147298D01*
X239787Y147980D01*
X241269Y148970D01*
X242530Y150231D01*
X243520Y151713D01*
X244202Y153360D01*
X244550Y155109D01*
Y156891D01*
X244202Y158640D01*
X243520Y160287D01*
X242530Y161769D01*
X241269Y163030D01*
X239787Y164020D01*
X238140Y164702D01*
X236391Y165050D01*
D02*
G37*
G36*
X401274Y118437D02*
X392400D01*
Y109563D01*
X401274D01*
Y118437D01*
D02*
G37*
G36*
X328274D02*
X319400D01*
Y109563D01*
X328274D01*
Y118437D01*
D02*
G37*
G36*
X255274D02*
X246400D01*
Y109563D01*
X255274D01*
Y118437D01*
D02*
G37*
G36*
X360043Y87921D02*
X346004D01*
Y74079D01*
X350401D01*
Y40640D01*
X350401Y40640D01*
X350490Y39961D01*
X350752Y39329D01*
X351169Y38785D01*
X362809Y27146D01*
X363350Y26730D01*
X363613Y26276D01*
X364439Y25449D01*
X365451Y24865D01*
X366579Y24563D01*
X367747D01*
X368876Y24865D01*
X369888Y25449D01*
X370714Y26276D01*
X371298Y27287D01*
X371600Y28416D01*
Y29584D01*
X371298Y30713D01*
X370714Y31724D01*
X369888Y32550D01*
X368876Y33135D01*
X367747Y33437D01*
X366579D01*
X365451Y33135D01*
X364682Y32691D01*
X355646Y41726D01*
Y74079D01*
X360043D01*
Y77202D01*
X361043Y77485D01*
X361636Y76598D01*
X362598Y75636D01*
X363729Y74880D01*
X364986Y74360D01*
X366320Y74094D01*
X367680D01*
X369014Y74360D01*
X370271Y74880D01*
X371402Y75636D01*
X372364Y76598D01*
X373120Y77729D01*
X373640Y78986D01*
X373905Y80320D01*
Y81680D01*
X373640Y83014D01*
X373120Y84271D01*
X372364Y85402D01*
X371402Y86364D01*
X370271Y87120D01*
X369014Y87640D01*
X367680Y87906D01*
X366320D01*
X364986Y87640D01*
X363729Y87120D01*
X362598Y86364D01*
X361636Y85402D01*
X361043Y84515D01*
X360043Y84798D01*
Y87921D01*
D02*
G37*
G36*
X286043D02*
X272004D01*
Y74079D01*
X276401D01*
Y44140D01*
X276401Y44140D01*
X276490Y43461D01*
X276752Y42829D01*
X277169Y42285D01*
X289757Y29698D01*
X289726Y29584D01*
Y28416D01*
X290029Y27287D01*
X290613Y26276D01*
X291439Y25449D01*
X292451Y24865D01*
X293579Y24563D01*
X294747D01*
X295876Y24865D01*
X296888Y25449D01*
X297714Y26276D01*
X298298Y27287D01*
X298600Y28416D01*
Y29584D01*
X298298Y30713D01*
X297714Y31724D01*
X296888Y32550D01*
X295876Y33135D01*
X294747Y33437D01*
X293579D01*
X293465Y33406D01*
X281646Y45226D01*
Y74079D01*
X286043D01*
Y77202D01*
X287043Y77485D01*
X287636Y76598D01*
X288598Y75636D01*
X289729Y74880D01*
X290986Y74360D01*
X292320Y74094D01*
X293680D01*
X295014Y74360D01*
X296271Y74880D01*
X297402Y75636D01*
X298364Y76598D01*
X299120Y77729D01*
X299640Y78986D01*
X299905Y80320D01*
Y81680D01*
X299640Y83014D01*
X299120Y84271D01*
X298364Y85402D01*
X297402Y86364D01*
X296271Y87120D01*
X295014Y87640D01*
X293680Y87906D01*
X292320D01*
X290986Y87640D01*
X289729Y87120D01*
X288598Y86364D01*
X287636Y85402D01*
X287043Y84515D01*
X286043Y84798D01*
Y87921D01*
D02*
G37*
G36*
X213543D02*
X199504D01*
Y74079D01*
X203901D01*
Y43140D01*
X203901Y43140D01*
X203991Y42461D01*
X204253Y41829D01*
X204669Y41285D01*
X216726Y29228D01*
Y28416D01*
X217029Y27287D01*
X217613Y26276D01*
X218439Y25449D01*
X219451Y24865D01*
X220579Y24563D01*
X221747D01*
X222876Y24865D01*
X223888Y25449D01*
X224714Y26276D01*
X225298Y27287D01*
X225600Y28416D01*
Y29584D01*
X225298Y30713D01*
X224714Y31724D01*
X223888Y32550D01*
X222876Y33135D01*
X221747Y33437D01*
X220579D01*
X220071Y33301D01*
X209146Y44226D01*
Y74079D01*
X213543D01*
Y77202D01*
X214543Y77485D01*
X215136Y76598D01*
X216098Y75636D01*
X217229Y74880D01*
X218486Y74360D01*
X219820Y74094D01*
X221180D01*
X222514Y74360D01*
X223771Y74880D01*
X224902Y75636D01*
X225864Y76598D01*
X226620Y77729D01*
X227140Y78986D01*
X227406Y80320D01*
Y81680D01*
X227140Y83014D01*
X226620Y84271D01*
X225864Y85402D01*
X224902Y86364D01*
X223771Y87120D01*
X222514Y87640D01*
X221180Y87906D01*
X219820D01*
X218486Y87640D01*
X217229Y87120D01*
X216098Y86364D01*
X215136Y85402D01*
X214543Y84515D01*
X213543Y84798D01*
Y87921D01*
D02*
G37*
G36*
X382891Y80050D02*
X381109D01*
X379360Y79702D01*
X377713Y79020D01*
X376231Y78030D01*
X374970Y76769D01*
X373980Y75287D01*
X373298Y73640D01*
X372950Y71891D01*
Y70109D01*
X373298Y68360D01*
X373980Y66713D01*
X374970Y65231D01*
X376231Y63970D01*
X377713Y62980D01*
X379360Y62298D01*
X381109Y61950D01*
X382891D01*
X384640Y62298D01*
X386287Y62980D01*
X387769Y63970D01*
X389030Y65231D01*
X390020Y66713D01*
X390702Y68360D01*
X391050Y70109D01*
Y71891D01*
X390702Y73640D01*
X390020Y75287D01*
X389030Y76769D01*
X387769Y78030D01*
X386287Y79020D01*
X384640Y79702D01*
X382891Y80050D01*
D02*
G37*
G36*
X308891D02*
X307109D01*
X305360Y79702D01*
X303713Y79020D01*
X302231Y78030D01*
X300970Y76769D01*
X299980Y75287D01*
X299298Y73640D01*
X298950Y71891D01*
Y70109D01*
X299298Y68360D01*
X299980Y66713D01*
X300970Y65231D01*
X302231Y63970D01*
X303713Y62980D01*
X305360Y62298D01*
X307109Y61950D01*
X308891D01*
X310640Y62298D01*
X312287Y62980D01*
X313769Y63970D01*
X315030Y65231D01*
X316020Y66713D01*
X316702Y68360D01*
X317050Y70109D01*
Y71891D01*
X316702Y73640D01*
X316020Y75287D01*
X315030Y76769D01*
X313769Y78030D01*
X312287Y79020D01*
X310640Y79702D01*
X308891Y80050D01*
D02*
G37*
G36*
X236391D02*
X234609D01*
X232860Y79702D01*
X231213Y79020D01*
X229731Y78030D01*
X228470Y76769D01*
X227480Y75287D01*
X226798Y73640D01*
X226450Y71891D01*
Y70109D01*
X226798Y68360D01*
X227480Y66713D01*
X228470Y65231D01*
X229731Y63970D01*
X231213Y62980D01*
X232860Y62298D01*
X234609Y61950D01*
X236391D01*
X238140Y62298D01*
X239787Y62980D01*
X241269Y63970D01*
X242530Y65231D01*
X243520Y66713D01*
X244202Y68360D01*
X244550Y70109D01*
Y71891D01*
X244202Y73640D01*
X243520Y75287D01*
X242530Y76769D01*
X241269Y78030D01*
X239787Y79020D01*
X238140Y79702D01*
X236391Y80050D01*
D02*
G37*
G36*
X401274Y33437D02*
X392400D01*
Y24563D01*
X401274D01*
Y33437D01*
D02*
G37*
G36*
X328274D02*
X319400D01*
Y24563D01*
X328274D01*
Y33437D01*
D02*
G37*
G36*
X255274D02*
X246400D01*
Y24563D01*
X255274D01*
Y33437D01*
D02*
G37*
G36*
X427936Y32500D02*
X426064D01*
X424229Y32135D01*
X422500Y31419D01*
X420944Y30379D01*
X419621Y29056D01*
X418581Y27500D01*
X417865Y25771D01*
X417500Y23936D01*
Y22064D01*
X417865Y20229D01*
X418581Y18500D01*
X419621Y16944D01*
X420944Y15621D01*
X422500Y14581D01*
X424229Y13865D01*
X426064Y13500D01*
X427936D01*
X429771Y13865D01*
X431500Y14581D01*
X433056Y15621D01*
X434379Y16944D01*
X435419Y18500D01*
X436135Y20229D01*
X436500Y22064D01*
Y23936D01*
X436135Y25771D01*
X435419Y27500D01*
X434379Y29056D01*
X433056Y30379D01*
X431500Y31419D01*
X429771Y32135D01*
X427936Y32500D01*
D02*
G37*
G36*
X91436D02*
X89564D01*
X87729Y32135D01*
X86000Y31419D01*
X84444Y30379D01*
X83121Y29056D01*
X82081Y27500D01*
X81365Y25771D01*
X81000Y23936D01*
Y22064D01*
X81365Y20229D01*
X82081Y18500D01*
X83121Y16944D01*
X84444Y15621D01*
X86000Y14581D01*
X87729Y13865D01*
X89564Y13500D01*
X91436D01*
X93271Y13865D01*
X95000Y14581D01*
X96556Y15621D01*
X97879Y16944D01*
X98919Y18500D01*
X99635Y20229D01*
X100000Y22064D01*
Y23936D01*
X99635Y25771D01*
X98919Y27500D01*
X97879Y29056D01*
X96556Y30379D01*
X95000Y31419D01*
X93271Y32135D01*
X91436Y32500D01*
D02*
G37*
G36*
X265272Y312528D02*
X255441D01*
Y302697D01*
X255958D01*
X257954Y303094D01*
X259834Y303873D01*
X261526Y305003D01*
X262965Y306442D01*
X264096Y308134D01*
X264875Y310014D01*
X265272Y312010D01*
Y312528D01*
D02*
G37*
G36*
X254441D02*
X244610D01*
Y312010D01*
X245007Y310014D01*
X245786Y308134D01*
X246917Y306442D01*
X248356Y305003D01*
X250047Y303873D01*
X251928Y303094D01*
X253924Y302697D01*
X254441D01*
Y312528D01*
D02*
G37*
G36*
X236500Y302499D02*
Y300500D01*
X238499D01*
X238119Y301416D01*
X237416Y302119D01*
X236500Y302499D01*
D02*
G37*
G36*
X235500D02*
X234584Y302119D01*
X233881Y301416D01*
X233501Y300500D01*
X235500D01*
Y302499D01*
D02*
G37*
G36*
X238499Y299500D02*
X236500D01*
Y297501D01*
X237416Y297881D01*
X238119Y298584D01*
X238499Y299500D01*
D02*
G37*
G36*
X235500D02*
X233501D01*
X233881Y298584D01*
X234584Y297881D01*
X235500Y297501D01*
Y299500D01*
D02*
G37*
G36*
X192584Y325274D02*
X191416D01*
X190287Y324971D01*
X189276Y324387D01*
X188450Y323561D01*
X187865Y322549D01*
X187563Y321421D01*
Y320252D01*
X187865Y319124D01*
X188450Y318112D01*
X189276Y317286D01*
X190287Y316702D01*
X191416Y316400D01*
X192584D01*
X193713Y316702D01*
X194724Y317286D01*
X195551Y318112D01*
X196135Y319124D01*
X196437Y320252D01*
Y321421D01*
X196135Y322549D01*
X195551Y323561D01*
X194724Y324387D01*
X193713Y324971D01*
X192584Y325274D01*
D02*
G37*
G36*
X211076Y323358D02*
X210559D01*
Y313528D01*
X220390D01*
Y314045D01*
X219993Y316041D01*
X219214Y317921D01*
X218083Y319613D01*
X216645Y321052D01*
X214952Y322182D01*
X213072Y322961D01*
X211076Y323358D01*
D02*
G37*
G36*
X209559D02*
X209042D01*
X207046Y322961D01*
X205166Y322182D01*
X203474Y321052D01*
X202035Y319613D01*
X200904Y317921D01*
X200125Y316041D01*
X199728Y314045D01*
Y313528D01*
X209559D01*
Y323358D01*
D02*
G37*
G36*
X220390Y312528D02*
X210559D01*
Y302697D01*
X211076D01*
X213072Y303094D01*
X214952Y303873D01*
X216645Y305003D01*
X218083Y306442D01*
X219214Y308134D01*
X219993Y310014D01*
X220390Y312010D01*
Y312528D01*
D02*
G37*
G36*
X209559D02*
X199728D01*
Y312010D01*
X200125Y310014D01*
X200904Y308134D01*
X202035Y306442D01*
X203474Y305003D01*
X205166Y303873D01*
X207046Y303094D01*
X209042Y302697D01*
X209559D01*
Y312528D01*
D02*
G37*
G36*
X161500Y314999D02*
Y313000D01*
X163499D01*
X163119Y313916D01*
X162416Y314619D01*
X161500Y314999D01*
D02*
G37*
G36*
X160500D02*
X159584Y314619D01*
X158881Y313916D01*
X158501Y313000D01*
X160500D01*
Y314999D01*
D02*
G37*
G36*
X131000D02*
Y313000D01*
X132999D01*
X132619Y313916D01*
X131916Y314619D01*
X131000Y314999D01*
D02*
G37*
G36*
X130000D02*
X129084Y314619D01*
X128381Y313916D01*
X128001Y313000D01*
X130000D01*
Y314999D01*
D02*
G37*
G36*
X163499Y312000D02*
X161500D01*
Y310001D01*
X162416Y310381D01*
X163119Y311084D01*
X163499Y312000D01*
D02*
G37*
G36*
X160500D02*
X158501D01*
X158881Y311084D01*
X159584Y310381D01*
X160500Y310001D01*
Y312000D01*
D02*
G37*
G36*
X132999D02*
X131000D01*
Y310001D01*
X131916Y310381D01*
X132619Y311084D01*
X132999Y312000D01*
D02*
G37*
G36*
X130000D02*
X128001D01*
X128381Y311084D01*
X129084Y310381D01*
X130000Y310001D01*
Y312000D01*
D02*
G37*
G36*
X131500Y285499D02*
Y283500D01*
X133499D01*
X133119Y284416D01*
X132416Y285119D01*
X131500Y285499D01*
D02*
G37*
G36*
X130500D02*
X129584Y285119D01*
X128881Y284416D01*
X128501Y283500D01*
X130500D01*
Y285499D01*
D02*
G37*
G36*
X161000Y284999D02*
Y283000D01*
X162999D01*
X162619Y283916D01*
X161916Y284619D01*
X161000Y284999D01*
D02*
G37*
G36*
X160000D02*
X159084Y284619D01*
X158381Y283916D01*
X158001Y283000D01*
X160000D01*
Y284999D01*
D02*
G37*
G36*
X133499Y282500D02*
X131500D01*
Y280501D01*
X132416Y280881D01*
X133119Y281584D01*
X133499Y282500D01*
D02*
G37*
G36*
X130500D02*
X128501D01*
X128881Y281584D01*
X129584Y280881D01*
X130500Y280501D01*
Y282500D01*
D02*
G37*
G36*
X162999Y282000D02*
X161000D01*
Y280001D01*
X161916Y280381D01*
X162619Y281084D01*
X162999Y282000D01*
D02*
G37*
G36*
X160000D02*
X158001D01*
X158381Y281084D01*
X159084Y280381D01*
X160000Y280001D01*
Y282000D01*
D02*
G37*
G36*
X230000Y265499D02*
Y263500D01*
X231999D01*
X231619Y264416D01*
X230916Y265119D01*
X230000Y265499D01*
D02*
G37*
G36*
X229000D02*
X228084Y265119D01*
X227381Y264416D01*
X227001Y263500D01*
X229000D01*
Y265499D01*
D02*
G37*
G36*
X231999Y262500D02*
X230000D01*
Y260501D01*
X230916Y260881D01*
X231619Y261584D01*
X231999Y262500D01*
D02*
G37*
G36*
X229000D02*
X227001D01*
X227381Y261584D01*
X228084Y260881D01*
X229000Y260501D01*
Y262500D01*
D02*
G37*
G36*
X200000Y240499D02*
X199084Y240119D01*
X198381Y239416D01*
X198001Y238500D01*
X200000D01*
Y240499D01*
D02*
G37*
G36*
X251000Y238999D02*
Y237000D01*
X252999D01*
X252619Y237916D01*
X251916Y238619D01*
X251000Y238999D01*
D02*
G37*
G36*
X250000D02*
X249084Y238619D01*
X248381Y237916D01*
X248001Y237000D01*
X250000D01*
Y238999D01*
D02*
G37*
G36*
X200000Y237500D02*
X198001D01*
X198381Y236584D01*
X199084Y235881D01*
X200000Y235501D01*
Y237500D01*
D02*
G37*
G36*
X252999Y236000D02*
X251000D01*
Y234001D01*
X251916Y234381D01*
X252619Y235084D01*
X252999Y236000D01*
D02*
G37*
G36*
X250000D02*
X248001D01*
X248381Y235084D01*
X249084Y234381D01*
X250000Y234001D01*
Y236000D01*
D02*
G37*
G36*
X236391Y249550D02*
X234609D01*
X232860Y249202D01*
X231213Y248520D01*
X229731Y247530D01*
X228470Y246269D01*
X227480Y244787D01*
X226798Y243140D01*
X226450Y241391D01*
Y239609D01*
X226798Y237860D01*
X227480Y236213D01*
X228470Y234731D01*
X229731Y233470D01*
X231213Y232480D01*
X232860Y231798D01*
X234609Y231450D01*
X236391D01*
X238140Y231798D01*
X239787Y232480D01*
X241269Y233470D01*
X242530Y234731D01*
X243520Y236213D01*
X244202Y237860D01*
X244550Y239609D01*
Y241391D01*
X244202Y243140D01*
X243520Y244787D01*
X242530Y246269D01*
X241269Y247530D01*
X239787Y248520D01*
X238140Y249202D01*
X236391Y249550D01*
D02*
G37*
G36*
X250500Y221999D02*
Y220000D01*
X252499D01*
X252119Y220916D01*
X251416Y221619D01*
X250500Y221999D01*
D02*
G37*
G36*
X249500D02*
X248584Y221619D01*
X247881Y220916D01*
X247501Y220000D01*
X249500D01*
Y221999D01*
D02*
G37*
G36*
X215500Y220999D02*
Y219000D01*
X217499D01*
X217119Y219916D01*
X216416Y220619D01*
X215500Y220999D01*
D02*
G37*
G36*
X214500D02*
X213584Y220619D01*
X212881Y219916D01*
X212501Y219000D01*
X214500D01*
Y220999D01*
D02*
G37*
G36*
X252499Y219000D02*
X250500D01*
Y217001D01*
X251416Y217381D01*
X252119Y218084D01*
X252499Y219000D01*
D02*
G37*
G36*
X249500D02*
X247501D01*
X247881Y218084D01*
X248584Y217381D01*
X249500Y217001D01*
Y219000D01*
D02*
G37*
G36*
X217499Y218000D02*
X215500D01*
Y216001D01*
X216416Y216381D01*
X217119Y217084D01*
X217499Y218000D01*
D02*
G37*
G36*
X214500D02*
X212501D01*
X212881Y217084D01*
X213584Y216381D01*
X214500Y216001D01*
Y218000D01*
D02*
G37*
G36*
X254774Y202937D02*
X245900D01*
Y194063D01*
X254774D01*
Y202937D01*
D02*
G37*
%LPD*%
D28*
X114500Y244000D02*
X129500Y259000D01*
X184000D01*
X264000Y283500D02*
Y300000D01*
X276909Y312909D01*
X279909D01*
X280500Y313500D01*
X202000Y277000D02*
X257500D01*
X184000Y259000D02*
X202000Y277000D01*
X257500D02*
X264000Y283500D01*
X114500Y254000D02*
X129500Y269000D01*
X280043Y323500D02*
X280500D01*
X277543Y326000D02*
X280043Y323500D01*
X129500Y269000D02*
X186500D01*
X243500Y326000D01*
X277543D01*
X205500Y273000D02*
X393378D01*
X175457Y244957D02*
X177457D01*
X174500Y244000D02*
X175457Y244957D01*
X177457D02*
X205500Y273000D01*
X178697Y223803D02*
X212500Y190000D01*
X174697Y223803D02*
X178697D01*
X174500Y224000D02*
X174697Y223803D01*
X245378Y190000D02*
X259378Y176000D01*
X212500Y190000D02*
X245378D01*
X259378Y176000D02*
X259476D01*
Y260500D02*
X268500D01*
X272000Y264000D01*
X259476Y91000D02*
Y176000D01*
Y260500D01*
X331976Y91000D02*
Y176000D01*
X332476Y176500D01*
Y260500D01*
X279024Y44140D02*
X294163Y29000D01*
X279024Y44140D02*
Y81000D01*
X353024Y40640D02*
Y81000D01*
Y40640D02*
X364663Y29000D01*
X403476Y91000D02*
X405976Y93500D01*
Y176000D01*
X405878Y176098D02*
X405976Y176000D01*
X405878Y176098D02*
Y260500D01*
X174500Y234000D02*
X210000Y269500D01*
X323378D02*
X332378Y260500D01*
X210000Y269500D02*
X323378D01*
X393378Y273000D02*
X405878Y260500D01*
X332378D02*
X332476D01*
X206524Y212640D02*
X220663Y198500D01*
X206524Y212640D02*
Y250500D01*
Y43140D02*
Y81000D01*
Y43140D02*
X220663Y29000D01*
X206524Y128140D02*
Y166000D01*
Y128140D02*
X220663Y114000D01*
X279024Y128140D02*
Y166000D01*
Y128140D02*
X293163Y114000D01*
X353024Y128140D02*
Y166000D01*
Y128140D02*
X367163Y114000D01*
X353024Y212640D02*
X367163Y198500D01*
X353024Y212640D02*
Y250500D01*
X279524Y212640D02*
X293663Y198500D01*
X279524Y212640D02*
Y250500D01*
X174837Y274000D02*
X192000Y291163D01*
X174500Y274000D02*
X174837D01*
D29*
X280500Y303500D02*
D03*
Y313500D02*
D03*
Y323500D02*
D03*
D30*
Y293500D02*
D03*
D31*
X114500Y244000D02*
D03*
Y254000D02*
D03*
X174500Y214000D02*
D03*
X114500Y194000D02*
D03*
X174500Y224000D02*
D03*
Y234000D02*
D03*
Y274000D02*
D03*
Y174000D02*
D03*
Y184000D02*
D03*
Y194000D02*
D03*
Y204000D02*
D03*
Y244000D02*
D03*
Y254000D02*
D03*
Y264000D02*
D03*
Y284000D02*
D03*
Y294000D02*
D03*
Y304000D02*
D03*
Y314000D02*
D03*
Y324000D02*
D03*
X114500D02*
D03*
Y314000D02*
D03*
Y304000D02*
D03*
Y294000D02*
D03*
Y284000D02*
D03*
Y274000D02*
D03*
Y264000D02*
D03*
Y234000D02*
D03*
Y224000D02*
D03*
Y214000D02*
D03*
Y204000D02*
D03*
Y184000D02*
D03*
Y174000D02*
D03*
Y164000D02*
D03*
D32*
X232500Y283500D02*
D03*
X242342Y340587D02*
D03*
Y283500D02*
D03*
X222657Y340587D02*
D03*
D33*
X254941Y313028D02*
D03*
X210059D02*
D03*
D34*
X235500Y240500D02*
D03*
X382000Y71000D02*
D03*
X308000D02*
D03*
X235500D02*
D03*
X382000Y156000D02*
D03*
X308000D02*
D03*
X235500D02*
D03*
X308500Y240500D02*
D03*
X382000D02*
D03*
D35*
X392000Y176000D02*
D03*
X367000Y166000D02*
D03*
X318000Y176000D02*
D03*
X293000Y166000D02*
D03*
X245500Y260500D02*
D03*
X220500Y250500D02*
D03*
X318500Y260500D02*
D03*
X293500Y250500D02*
D03*
X318000Y91000D02*
D03*
X293000Y81000D02*
D03*
X392000Y91000D02*
D03*
X367000Y81000D02*
D03*
X245500Y91000D02*
D03*
X220500Y81000D02*
D03*
X245500Y176000D02*
D03*
X220500Y166000D02*
D03*
X392000Y260500D02*
D03*
X367000Y250500D02*
D03*
D36*
X222657Y283500D02*
D03*
D37*
X192000Y320837D02*
D03*
X367163Y198500D02*
D03*
X293663D02*
D03*
X220663D02*
D03*
X367163Y29000D02*
D03*
X294163D02*
D03*
X221163D02*
D03*
Y114000D02*
D03*
X294163D02*
D03*
X367163D02*
D03*
D38*
X192000Y291163D02*
D03*
D39*
X427000Y332000D02*
D03*
X90500Y23000D02*
D03*
X427000D02*
D03*
X89500Y332000D02*
D03*
D40*
X323337Y198500D02*
D03*
X396837D02*
D03*
X250337D02*
D03*
X250837Y114000D02*
D03*
X323837D02*
D03*
X396837D02*
D03*
X250837Y29000D02*
D03*
X323837D02*
D03*
X396837D02*
D03*
D41*
X174500Y164000D02*
D03*
D42*
X131000Y283000D02*
D03*
X160500Y282500D02*
D03*
X161000Y312500D02*
D03*
X130500D02*
D03*
X236000Y300000D02*
D03*
X200500Y238000D02*
D03*
X250500Y236500D02*
D03*
X229500Y263000D02*
D03*
X215000Y218500D02*
D03*
X250000Y219500D02*
D03*
X272000Y264000D02*
D03*
D43*
X353024Y166000D02*
D03*
X405976Y176000D02*
D03*
X279024Y166000D02*
D03*
X331976Y176000D02*
D03*
X206524Y250500D02*
D03*
X259476Y260500D02*
D03*
Y176000D02*
D03*
Y91000D02*
D03*
X279524Y250500D02*
D03*
X332476Y260500D02*
D03*
X279024Y81000D02*
D03*
X331976Y91000D02*
D03*
X353024Y81000D02*
D03*
X405976Y91000D02*
D03*
X206524Y81000D02*
D03*
Y166000D02*
D03*
X353024Y250500D02*
D03*
X405976Y260500D02*
D03*
D44*
X132500Y332000D02*
X288361D01*
X280500Y303500D02*
X288000D01*
X293000Y308500D01*
Y327361D01*
X288361Y332000D02*
X293000Y327361D01*
X114500Y314000D02*
X132500Y332000D01*
M02*
