M48
;Layer_Color=9474304
;FILE_FORMAT=2:5
INCH,LZ
;TYPE=PLATED
T01F00S00C0.01500
T02F00S00C0.02874
T03F00S00C0.03600
T04F00S00C0.03937
T05F00S00C0.04331
T06F00S00C0.12441
T07F00S00C0.12598
;TYPE=NON_PLATED
T08F00S00C0.11811
T09F00S00C0.16100
%
T01
X0215Y02185
X02005Y0238
X02505Y02365
X025Y02195
X02295Y0263
X0236Y03
X0272Y0264
X01605Y02825
X0131Y0283
X01305Y03125
X0161
T02
X0221163Y0029
X0250837
X0294163
Y0114
X0250837
X0221163
X0323837
X0367163
X0396837
Y0029
X0367163
X0323837
X0323337Y01985
X0367163
X0396837
X0293663
X0250337
X0220663
X0192Y0291163
Y0320837
T03
X01745Y0164
Y0174
Y0184
Y0194
Y0204
Y0214
Y0224
Y0234
Y0244
Y0254
Y0264
Y0274
Y0284
Y0294
Y0304
X01145
Y0294
Y0284
Y0274
Y0264
Y0254
Y0244
Y0234
Y0224
Y0214
Y0204
Y0194
Y0184
Y0174
Y0164
Y0314
Y0324
X01745
Y0314
T04
X0222657Y02835
X02325
X0242342
Y0340587
X0222657
T05
X02805Y02935
Y03035
Y03135
Y03235
T06
X0210059Y0313028
X0254941
T07
X00905Y0023
X0427
X00895Y0332
X0427
T08
X02205Y0081
X02455Y0091
X0293Y0081
X0318Y0091
X0367Y0081
X0392Y0091
Y0176
X0367Y0166
X0318Y0176
X03185Y02605
X0367Y02505
X0392Y02605
X02935Y02505
X02455Y02605
X02205Y02505
Y0166
X02455Y0176
X0293Y0166
T09
X02355Y0071
X0308
Y0156
X02355
X0382
Y0071
Y02405
X03085
X02355
M30
