G04*
G04 #@! TF.GenerationSoftware,Altium Limited,Altium Designer,25.8.1 (18)*
G04*
G04 Layer_Color=8388736*
%FSLAX44Y44*%
%MOMM*%
G71*
G04*
G04 #@! TF.SameCoordinates,DF3AAA51-F136-4719-93B0-9B07129043F7*
G04*
G04*
G04 #@! TF.FilePolarity,Negative*
G04*
G01*
G75*
%ADD14C,4.2926*%
%ADD15R,1.6532X1.6532*%
%ADD16C,1.6532*%
%ADD17C,4.0132*%
%ADD18C,4.9432*%
%ADD19C,1.7032*%
%ADD20C,3.2032*%
%ADD21R,1.4412X1.4412*%
%ADD22C,1.4412*%
%ADD23R,1.4412X1.4412*%
%ADD24R,1.7032X1.7032*%
%ADD25C,0.9652*%
D14*
X970280Y610870D02*
D03*
Y180340D02*
D03*
X782320D02*
D03*
X598170D02*
D03*
X970280Y396240D02*
D03*
X782320D02*
D03*
X598170D02*
D03*
X783590Y610870D02*
D03*
X598170D02*
D03*
D15*
X712470Y745490D02*
D03*
D16*
Y770890D02*
D03*
Y796290D02*
D03*
Y821690D02*
D03*
D17*
X1093470Y68580D02*
D03*
X474980D02*
D03*
Y895350D02*
D03*
X1098550Y900430D02*
D03*
D18*
X533550Y795090D02*
D03*
X647550D02*
D03*
D19*
X590550Y720090D02*
D03*
X615550Y865090D02*
D03*
Y720090D02*
D03*
X565550Y865090D02*
D03*
D20*
X623570Y661670D02*
D03*
X560070Y636270D02*
D03*
X745490D02*
D03*
X808990Y661670D02*
D03*
X995680D02*
D03*
X932180Y636270D02*
D03*
X560070Y421640D02*
D03*
X623570Y447040D02*
D03*
X807720D02*
D03*
X744220Y421640D02*
D03*
X932180D02*
D03*
X995680Y447040D02*
D03*
X623570Y231140D02*
D03*
X560070Y205740D02*
D03*
X744220D02*
D03*
X807720Y231140D02*
D03*
X995680D02*
D03*
X932180Y205740D02*
D03*
D21*
X487680Y739555D02*
D03*
D22*
Y814925D02*
D03*
X932595Y73660D02*
D03*
X747175D02*
D03*
X561755D02*
D03*
X932595Y289560D02*
D03*
X561755D02*
D03*
X932595Y504190D02*
D03*
X745905D02*
D03*
X560485D02*
D03*
X747175Y289560D02*
D03*
D23*
X1007965Y73660D02*
D03*
X822545D02*
D03*
X637125D02*
D03*
X1007965Y289560D02*
D03*
X637125D02*
D03*
X1007965Y504190D02*
D03*
X821275D02*
D03*
X635855D02*
D03*
X822545Y289560D02*
D03*
D24*
X565550Y720090D02*
D03*
D25*
X775970Y737870D02*
D03*
X755650Y810260D02*
D03*
X759460Y838200D02*
D03*
X1017270Y914400D02*
D03*
X998220Y889000D02*
D03*
X1047750Y863600D02*
D03*
X995680Y786130D02*
D03*
Y812800D02*
D03*
M02*
