G04*
G04 #@! TF.GenerationSoftware,Altium Limited,Altium Designer,25.8.1 (18)*
G04*
G04 Layer_Color=8388736*
%FSLAX25Y25*%
%MOIN*%
G70*
G04*
G04 #@! TF.SameCoordinates,DF7FB86F-BB7A-4952-9DC5-A7C3E525FF5A*
G04*
G04*
G04 #@! TF.FilePolarity,Negative*
G04*
G01*
G75*
%ADD14C,0.06509*%
%ADD15R,0.06509X0.06509*%
%ADD16C,0.07000*%
%ADD17C,0.06706*%
%ADD18C,0.19461*%
%ADD19C,0.16900*%
%ADD20C,0.12611*%
%ADD21R,0.06706X0.06706*%
%ADD22C,0.05674*%
%ADD23R,0.05674X0.05674*%
%ADD24C,0.15800*%
%ADD25R,0.05674X0.05674*%
%ADD26R,0.07000X0.07000*%
%ADD27C,0.03800*%
D14*
X280500Y303500D02*
D03*
Y313500D02*
D03*
Y323500D02*
D03*
D15*
Y293500D02*
D03*
D16*
X114500Y244000D02*
D03*
Y254000D02*
D03*
X174500Y214000D02*
D03*
X114500Y194000D02*
D03*
X174500Y224000D02*
D03*
Y234000D02*
D03*
Y274000D02*
D03*
Y174000D02*
D03*
Y184000D02*
D03*
Y194000D02*
D03*
Y204000D02*
D03*
Y244000D02*
D03*
Y254000D02*
D03*
Y264000D02*
D03*
Y284000D02*
D03*
Y294000D02*
D03*
Y304000D02*
D03*
Y314000D02*
D03*
Y324000D02*
D03*
X114500D02*
D03*
Y314000D02*
D03*
Y304000D02*
D03*
Y294000D02*
D03*
Y284000D02*
D03*
Y274000D02*
D03*
Y264000D02*
D03*
Y234000D02*
D03*
Y224000D02*
D03*
Y214000D02*
D03*
Y204000D02*
D03*
Y184000D02*
D03*
Y174000D02*
D03*
Y164000D02*
D03*
D17*
X232500Y283500D02*
D03*
X242342Y340587D02*
D03*
Y283500D02*
D03*
X222657Y340587D02*
D03*
D18*
X254941Y313028D02*
D03*
X210059D02*
D03*
D19*
X235500Y240500D02*
D03*
X382000Y71000D02*
D03*
X308000D02*
D03*
X235500D02*
D03*
X382000Y156000D02*
D03*
X308000D02*
D03*
X235500D02*
D03*
X308500Y240500D02*
D03*
X382000D02*
D03*
D20*
X392000Y176000D02*
D03*
X367000Y166000D02*
D03*
X318000Y176000D02*
D03*
X293000Y166000D02*
D03*
X245500Y260500D02*
D03*
X220500Y250500D02*
D03*
X318500Y260500D02*
D03*
X293500Y250500D02*
D03*
X318000Y91000D02*
D03*
X293000Y81000D02*
D03*
X392000Y91000D02*
D03*
X367000Y81000D02*
D03*
X245500Y91000D02*
D03*
X220500Y81000D02*
D03*
X245500Y176000D02*
D03*
X220500Y166000D02*
D03*
X392000Y260500D02*
D03*
X367000Y250500D02*
D03*
D21*
X222657Y283500D02*
D03*
D22*
X192000Y320837D02*
D03*
X367163Y198500D02*
D03*
X293663D02*
D03*
X220663D02*
D03*
X367163Y29000D02*
D03*
X294163D02*
D03*
X221163D02*
D03*
Y114000D02*
D03*
X294163D02*
D03*
X367163D02*
D03*
D23*
X192000Y291163D02*
D03*
D24*
X427000Y332000D02*
D03*
X90500Y23000D02*
D03*
X427000D02*
D03*
X89500Y332000D02*
D03*
D25*
X323337Y198500D02*
D03*
X396837D02*
D03*
X250337D02*
D03*
X250837Y114000D02*
D03*
X323837D02*
D03*
X396837D02*
D03*
X250837Y29000D02*
D03*
X323837D02*
D03*
X396837D02*
D03*
D26*
X174500Y164000D02*
D03*
D27*
X131000Y283000D02*
D03*
X160500Y282500D02*
D03*
X161000Y312500D02*
D03*
X130500D02*
D03*
X236000Y300000D02*
D03*
X200500Y238000D02*
D03*
X250500Y236500D02*
D03*
X229500Y263000D02*
D03*
X215000Y218500D02*
D03*
X250000Y219500D02*
D03*
X272000Y264000D02*
D03*
M02*
